#!OML:ASF F:\VICON\USERDATA\INSTALL\rory3\rory3.ASF
:FULLY-SPECIFIED
:DEGREES
56
root 1.0332201328734683 17.86393573238556 45.65236548383676 -3.334073899973368 -1.7460902931564921 3.1319870669064658
lfemur 13.178620995718 -4.734540413846926 -27.35322390588499
ltibia 19.262238082771994
lfoot -3.733148030477366 -6.446235971293459
ltoes -4.720054675482857
rfemur -24.19642229499509 1.5159950865980676 19.813782002089912
rtibia 54.8936684360467
rfoot -4.704071898674823 -0.7040029364191618
rtoes 1.5525344420100857
lowerback 9.603415531302863 -1.853927703879887 -3.734857939336401
upperback 0.11755586938372638 -2.6190075728882514 1.2364224023440349
thorax -4.787404688196978 -1.198534762828895 3.3563836986469058
lowerneck -16.37084835276137 -2.6056626031175876 -2.383520691173193
upperneck 22.403756824975734 -3.1077387220676544 0.5895062465862643
head 9.861285231451243 -1.5810366962534514 0.2725197864610913
lclavicle 4.73590010506651e-16 -7.435353719879813e-16
lhumerus -23.63767810279674 -0.7476860949910771 79.57037531897099
lradius 29.443957091759632
lwrist 5.182307793745832
lhand -28.24203128460783 20.492170915162458
lfingers nan
lthumb -1.4005487613645582 50.62827658874243
rclavicle 3.7291781668040685e-16 -8.020077882992287e-16
rhumerus -34.40714992922366 -21.160830267346025 -80.53258612219818
rradius 30.193745428297508
rwrist -0.8550437451973196
rhand -17.77996515830964 21.632840265301375
rfingers nan
rthumb 8.699808893751667 -7.609421002056676
57
root 1.1407408195909816 17.903848626265106 47.31140769570065 -2.955211345529626 -2.3336741519402384 2.2868173114940635
lfemur 13.720098051347748 -4.3853183578465265 -26.303654791447325
ltibia 21.756627086213605
lfoot -3.2011814207592586 -5.662596150543399
ltoes -4.672597474688532
rfemur -24.394387775160723 2.1221093568092364 21.111894218008107
rtibia 49.838201797308805
rfoot -5.016875050879419 -0.11697053522079948
rtoes 1.5254070566368108
lowerback 9.261334543910476 -2.1089857513521375 -3.1574441862899643
upperback 0.007612468830062613 -2.8292300534279113 1.548018226634918
thorax -4.719073675774295 -1.308594165699407 3.5329314051364458
lowerneck -16.34561562020884 -2.6012081863379244 -2.4101818857905903
upperneck 22.544886990625823 -3.074366808615835 0.4175558899202735
head 9.900843628122836 -1.575532231431518 0.20395358290058663
lclavicle 4.660481273080716e-16 -7.482482326643238e-16
lhumerus -23.81819812539029 -0.5884105572181788 79.58614153139456
lradius 29.360461019754716
lwrist 5.544621317575646
lhand -28.253515231704714 20.469088086479868
lfingers nan
lthumb -1.4384346871174547 50.49460862778105
rclavicle 3.689294592076547e-16 -8.030246172105116e-16
rhumerus -35.01897458785503 -22.03671645473704 -79.32820075322016
rradius 30.692443416030386
rwrist 0.21814774503430456
rhand -17.778442219732206 21.645844980987654
rfingers nan
rthumb 8.724291018211638 -7.54825327370566
58
root 1.2292000861922245 17.93478987239945 47.78512704540692 -2.7398814798901254 -2.903848776227483 1.3896619612749272
lfemur 13.4592494222922 -3.993204124034704 -25.033862200195237
ltibia 25.41742553665182
lfoot -3.0234050700835415 -5.291342166888427
ltoes -4.315515275410621
rfemur -24.38498754443144 2.5901740921777403 22.315915779157713
rtibia 44.77616309289642
rfoot -5.539949966601737 0.42683240971586667
rtoes 2.193239512997052
lowerback 8.982614866504619 -2.2103190627709295 -2.459024334171383
upperback -0.07559815497820313 -2.83768697842859 1.830937343747308
thorax -4.695507639792797 -1.3414525968739468 3.562442160560224
lowerneck -16.337988767634428 -2.606405365600301 -2.392096929110939
upperneck 22.557973987503082 -3.067350366385282 0.3026788195473222
head 9.90437330585962 -1.5780887375132904 0.15529460825795807
lclavicle 4.6071841417443e-16 -7.516917583925606e-16
lhumerus -24.131189885017495 -0.4847069096502583 79.70869944617296
lradius 28.85735815896815
lwrist 5.8215179858495825
lhand -28.32162082181256 20.27903056002235
lfingers nan
lthumb -1.4591543181391564 50.48009633747198
rclavicle 3.6536223963677987e-16 -8.043941801964083e-16
rhumerus -35.284529282305144 -23.0335519493415 -78.08380435077072
rradius 31.02933453063506
rwrist 1.4952011581333142
rhand -17.764566669333544 21.662943729289392
rfingers nan
rthumb 8.725370099050732 -7.5634363922552605
59
root 1.317892390114143 17.960457628190753 49.017122548887485 -2.5514483750792447 -3.0357048826147146 0.5470890855748534
lfemur 12.33581729014642 -3.6777962080565336 -23.629104690846418
ltibia 30.21614995886897
lfoot -3.833709739019811 -4.870169509105152
ltoes -4.17946114882741
rfemur -23.99791749895727 2.8482406364555084 23.335881218511833
rtibia 40.144253132154994
rfoot -6.556022195433563 0.23751958320550415
rtoes 3.353707095021837
lowerback 8.778526503782512 -2.2445572653976997 -1.6631089057903408
upperback -0.1358691167321473 -2.785264417266457 2.0294323506257963
thorax -4.729815938305034 -1.3480338841476833 3.500275882278373
lowerneck -16.35430097009084 -2.6174319742525904 -2.343697158616669
upperneck 22.47947289565664 -3.0773850020322606 0.22962823605237626
head 9.873646005405176 -1.5874622621222458 0.11988607527117125
lclavicle 4.588236624326807e-16 -7.531902113930803e-16
lhumerus -24.5183027013956 -0.5163598681135406 79.90405859898266
lradius 27.950792209878415
lwrist 5.967241362458321
lhand -28.35346609452996 20.17965635502481
lfingers nan
lthumb -1.5198139831489854 50.35381678933915
rclavicle 3.62422151597336e-16 -8.065092789516083e-16
rhumerus -35.19328384256102 -24.02210098308329 -76.9560704219879
rradius 31.18316907988248
rwrist 2.3678585959490723
rhand -17.74922578682364 21.646107897807024
rfingers nan
rthumb 8.734856493116004 -7.611083019537415
60
root 1.3630791612509547 17.967393970994287 49.191501747139505 -2.577106044008104 -3.057020970969525 -0.2447341638471412
lfemur 10.501009721173574 -3.3105194385439023 -22.168669575555075
ltibia 35.90145242710336
lfoot -3.931911835047973 -2.9050568075312615
ltoes -4.513573107156906
rfemur -22.826646189189447 2.9335248901464395 24.438652780673813
rtibia 36.15309679966956
rfoot -8.155701716834152 -1.1321521346462493
rtoes 4.500132123773895
lowerback 8.712842386417368 -2.15727288542108 -0.8367863357194629
upperback -0.13642980038103697 -2.559779762786753 2.1636939346070783
thorax -4.795527192491027 -1.2828380908750436 3.3331131956348194
lowerneck -16.37791366567964 -2.626873411877146 -2.260251517477431
upperneck 22.355079243945372 -3.091758580592475 0.17383024809180042
head 9.823218711821834 -1.597967844296843 0.09190351195242866
lclavicle 4.594674499094701e-16 -7.532480828474752e-16
lhumerus -24.973222938955526 -0.6443229369324381 80.13371375758082
lradius 26.71983800480889
lwrist 6.163598897355803
lhand -28.439149822180802 19.992834993666197
lfingers nan
lthumb -1.5485441227628953 50.27574684495361
rclavicle 3.615816475056054e-16 -8.079043593950226e-16
rhumerus -34.77787028466841 -24.84138471215088 -76.05079615690481
rradius 31.164067936402933
rwrist 2.865323092217445
rhand -17.711645874252042 21.670988731227713
rfingers nan
rthumb 8.775890263303705 -7.611421589157794
